<svg xmlns="http://www.w3.org/2000/svg" width="112" height="24" fill="none" viewBox="0 0 112 24"><g clip-path="url(#clip0)"><path fill="#525CA3" d="M80.193 4.1825H77.9223V19.8149H80.193V4.1825Z"/><path fill="#525CA3" fill-rule="evenodd" d="M53.1336 6.17001C50.0478 6.17001 47.5916 8.77191 47.5916 12.0565C47.5781 12.809 47.7137 13.5568 47.9906 14.2561C48.2675 14.9555 48.6801 15.5925 49.2044 16.1301C49.7287 16.6677 50.3542 17.0951 51.0445 17.3874C51.7347 17.6796 52.476 17.831 53.2251 17.8326C56.3606 17.8326 58.835 15.2727 58.835 12.0565C58.835 8.68265 56.4024 6.17001 53.1336 6.17001ZM53.2251 4.04333C54.7895 4.04542 56.3184 4.51306 57.6186 5.38726C58.9189 6.26145 59.9324 7.50304 60.5312 8.95536C61.13 10.4077 61.2873 12.0057 60.9833 13.5478C60.6793 15.0898 59.9276 16.5069 58.8229 17.6201C57.7183 18.7334 56.3103 19.4929 54.7766 19.803C53.2428 20.113 51.652 19.9597 50.2049 19.3623C48.7578 18.7649 47.5192 17.7502 46.6453 16.4462C45.7715 15.1423 45.3016 13.6075 45.2949 12.0355C45.2827 10.9845 45.4793 9.94167 45.8732 8.96803C46.2671 7.99439 46.8504 7.10951 47.5889 6.36523C48.3274 5.62095 49.2063 5.03222 50.1741 4.63352C51.1419 4.23482 52.1791 4.03418 53.2251 4.04333Z" clip-rule="evenodd"/><path fill="#525CA3" fill-rule="evenodd" d="M5.3199 5.94944C3.89324 5.94944 2.65472 6.93664 2.82717 8.42007C2.90295 9.05282 3.2165 9.44928 3.82792 9.86674C4.13602 10.0355 4.45982 10.1736 4.7947 10.2789C5.2389 10.4391 5.78238 10.6203 6.33632 10.8172C7.44942 11.211 8.59127 11.6652 9.07727 12.1299C9.49381 12.5059 9.82684 12.9658 10.0546 13.4797C10.2825 13.9936 10.3999 14.55 10.3994 15.1126C10.3994 18.0636 8.04778 20.0354 5.24935 20.0354C2.45091 20.0354 0.0705487 18.0873 0 15.2281H2.19485C2.47704 17.1867 3.7025 18.0505 5.24673 18.0505C6.676 18.0505 8.14968 17.1447 8.14968 15.4539C8.15683 15.0282 8.04252 14.6094 7.82026 14.2469C7.598 13.8845 7.27709 13.5936 6.89548 13.4086C6.60998 13.2628 6.31387 13.1391 6.00971 13.0384C5.6439 12.9097 5.22583 12.7758 4.78686 12.6314C3.97518 12.3946 3.18776 12.0808 2.43524 11.6941C1.87805 11.373 1.41535 10.9095 1.09411 10.3506C0.772866 9.79173 0.604532 9.15737 0.606196 8.51196C0.606196 5.88643 2.61292 3.96191 5.43486 3.96191C7.65846 3.96191 9.94214 5.69739 10.0832 8.21003H7.83875C7.78072 7.58225 7.488 6.99992 7.01961 6.58042C6.55121 6.16092 5.94196 5.93545 5.31467 5.94944" clip-rule="evenodd"/><path fill="#525CA3" fill-rule="evenodd" d="M66.4465 4.1825H73.7966V6.28292H67.2068V11.3555H73.7966V13.4559H67.2068V19.8149H64.9362V5.70268C64.9359 5.50295 64.9748 5.30512 65.0507 5.12052C65.1266 4.93593 65.238 4.76821 65.3785 4.62698C65.5191 4.48575 65.686 4.37378 65.8697 4.29751C66.0534 4.22124 66.2503 4.18215 66.4491 4.1825" clip-rule="evenodd"/><path fill="#525CA3" fill-rule="evenodd" d="M31.7574 7.82668V19.8175H29.4815V5.63961C29.4815 5.22181 29.6467 4.82113 29.9407 4.5257C30.2347 4.23027 30.6335 4.06429 31.0493 4.06429C31.3191 4.05197 31.5871 4.11332 31.825 4.24184C32.0628 4.37036 32.2616 4.56124 32.4001 4.79419C34.6551 8.46994 38.8018 15.4066 39.2538 16.168V4.18244H41.5454V18.3603C41.5454 18.7781 41.3802 19.1788 41.0862 19.4742C40.7922 19.7697 40.3934 19.9356 39.9776 19.9356C39.7074 19.9445 39.4399 19.8793 39.2037 19.747C38.9676 19.6147 38.7717 19.4204 38.6372 19.1847C36.3848 15.509 32.2329 8.56708 31.7835 7.80568" clip-rule="evenodd"/><path fill="#525CA3" fill-rule="evenodd" d="M19.2519 7.05742L16.9604 13.3587H21.5487L19.2519 7.05742ZM16.2131 15.4119L14.6035 19.8175H12.231L17.8148 5.02526C17.9283 4.73522 18.1261 4.48625 18.3825 4.31077C18.6388 4.13529 18.9418 4.04144 19.2519 4.04144C19.5621 4.04144 19.8651 4.13529 20.1214 4.31077C20.3777 4.48625 20.5755 4.73522 20.689 5.02526L26.2754 19.8175H23.9003L22.2907 15.4092L16.2131 15.4119Z" clip-rule="evenodd"/><path fill="#CAAE7A" d="M111.446 8.37283C107.597 2.69117 103.286 7.67968 98.9537 7.06006C94.6215 6.44043 94.5065 0.525107 99.7977 0.0288809C99.9257 0.0288809 100.059 0.0078766 100.182 0C102.698 0.0255258 105.141 0.84878 107.164 2.35232C109.187 3.85587 110.685 5.96289 111.446 8.37283Z"/><path fill="#525CA3" fill-rule="evenodd" d="M111.551 8.70889C112.249 11.1734 112.145 13.798 111.252 16.1984C110.359 18.5989 108.726 20.6492 106.589 22.0493C104.453 23.4493 101.928 24.1256 99.3815 23.9792C96.8354 23.8327 94.4028 22.8712 92.4397 21.2353C93.2752 21.549 94.1608 21.7065 95.0526 21.7C105.87 21.7604 101.25 7.30685 111.561 8.70889" clip-rule="evenodd"/><path fill="#BCBC1C" fill-rule="evenodd" d="M95.6954 20.2455C94.2008 21.1644 91.8231 20.8887 90.1743 18.6203C89.8241 18.1381 89.5139 17.6279 89.2467 17.0948C88.5002 15.4979 88.1138 13.7551 88.1153 11.9908C88.1149 11.5125 88.1437 11.0346 88.2016 10.5599C90.8145 14.0886 93.8037 13.9731 95.7111 15.1283C96.1423 15.3977 96.498 15.7733 96.7445 16.2194C96.9909 16.6655 97.12 17.1675 97.1195 17.6777C97.1185 18.192 96.9872 18.6975 96.7381 19.1467C96.489 19.596 96.1301 19.9741 95.6954 20.2455Z" clip-rule="evenodd"/></g><defs><clipPath id="clip0"><rect width="112" height="24" fill="#fff"/></clipPath></defs></svg>