<svg width="20" height="20" viewBox="0 0 20 20" fill="none" xmlns="http://www.w3.org/2000/svg">
<path d="M2.5 5H4.16667H17.5" stroke="#6E6E91" stroke-width="1.5" stroke-linecap="round" stroke-linejoin="round"/>
<path d="M6.66653 5.00002V3.33335C6.66653 2.89133 6.84213 2.4674 7.15469 2.15484C7.46725 1.84228 7.89117 1.66669 8.3332 1.66669H11.6665C12.1086 1.66669 12.5325 1.84228 12.845 2.15484C13.1576 2.4674 13.3332 2.89133 13.3332 3.33335V5.00002M15.8332 5.00002V16.6667C15.8332 17.1087 15.6576 17.5326 15.345 17.8452C15.0325 18.1578 14.6086 18.3334 14.1665 18.3334H5.8332C5.39117 18.3334 4.96725 18.1578 4.65469 17.8452C4.34213 17.5326 4.16653 17.1087 4.16653 16.6667V5.00002H15.8332Z" stroke="#6E6E91" stroke-width="1.5" stroke-linecap="round" stroke-linejoin="round"/>
<path d="M8.33347 9.16669V14.1667" stroke="#6E6E91" stroke-width="1.5" stroke-linecap="round" stroke-linejoin="round"/>
<path d="M11.6664 9.16669V14.1667" stroke="#6E6E91" stroke-width="1.5" stroke-linecap="round" stroke-linejoin="round"/>
</svg>
