<svg width="20" height="20" viewBox="0 0 20 20" fill="none" xmlns="http://www.w3.org/2000/svg">
<path d="M9.16664 3.33334H3.33331C2.89128 3.33334 2.46736 3.50894 2.1548 3.8215C1.84224 4.13406 1.66664 4.55798 1.66664 5.00001V16.6667C1.66664 17.1087 1.84224 17.5326 2.1548 17.8452C2.46736 18.1577 2.89128 18.3333 3.33331 18.3333H15C15.442 18.3333 15.8659 18.1577 16.1785 17.8452C16.491 17.5326 16.6666 17.1087 16.6666 16.6667V10.8333" stroke="#6E6E91" stroke-width="1.5" stroke-linecap="round" stroke-linejoin="round"/>
<path d="M15.4166 2.08332C15.7482 1.7518 16.1978 1.56555 16.6666 1.56555C17.1355 1.56555 17.5851 1.7518 17.9166 2.08332C18.2482 2.41484 18.4344 2.86448 18.4344 3.33332C18.4344 3.80216 18.2482 4.2518 17.9166 4.58332L9.99997 12.5L6.66664 13.3333L7.49997 9.99999L15.4166 2.08332Z" stroke="#6E6E91" stroke-width="1.5" stroke-linecap="round" stroke-linejoin="round"/>
</svg>
