<svg xmlns="http://www.w3.org/2000/svg" width="64" height="64" fill="none" viewBox="0 0 64 64"><g clip-path="url(#clip0)"><g clip-path="url(#clip1)"><path fill="#C9C9C9" d="M48.7768 25.0216C52.5461 22.7417 57.4555 23.9383 59.7409 27.6943C62.0289 31.4504 60.828 36.3424 57.0587 38.6198C56.9582 38.6804 56.8577 38.7384 56.7572 38.7937L15.1728 62.6557C11.4035 64.9356 6.49409 63.739 4.20604 59.983C1.91799 56.2269 3.11888 51.3349 6.88822 49.0549C6.98873 48.9943 7.08925 48.9363 7.18976 48.881L48.7768 25.0216Z"/><path fill="#E6E6E6" d="M18.8974 8.00489C18.9159 3.62155 15.3634 0.0500307 10.9646 0.0315801C10.3985 0.0289443 9.8351 0.086932 9.27962 0.202907C5.55262 1.1149 2.94716 4.46764 3.00006 8.29483V55.6892L18.8815 55.9765L18.8974 8.00489Z"/><path fill="#F2F2F2" d="M48.9563 38.8228C52.7997 40.8075 57.5292 39.5371 59.8516 35.8944C62.0841 32.1515 60.8488 27.3122 57.0928 25.0876C57.0637 25.0718 57.0372 25.0559 57.0081 25.0375L15.1462 1.13336C11.4192 -1.10971 6.57067 0.081673 4.31702 3.79553C4.26147 3.88778 4.20592 3.98267 4.15302 4.07756C1.94169 7.8494 3.21664 12.6966 7.00183 14.9028C7.02828 14.9186 7.05473 14.9318 7.08118 14.9476L48.9563 38.8228Z"/><path fill="#fff" d="M56.7335 38.8781L18.8842 59.9461V41.8487L48.9171 25.1614C52.898 22.9631 57.9159 24.397 60.1219 28.3665C60.3282 28.7355 60.5028 29.1204 60.6483 29.5157C61.7751 33.1663 60.1298 37.1016 56.7335 38.8781Z"/><path fill="#D9D9D9" d="M10.9566 63.9974C15.3421 63.9974 18.8973 60.4547 18.8973 56.0846C18.8973 51.7145 15.3421 48.1719 10.9566 48.1719C6.57105 48.1719 3.01587 51.7145 3.01587 56.0846C3.01587 60.4547 6.57105 63.9974 10.9566 63.9974Z"/></g></g><defs><clipPath id="clip0"><rect width="64" height="64" fill="#fff"/></clipPath><clipPath id="clip1"><rect width="58" height="64" fill="#fff" transform="translate(3)"/></clipPath></defs></svg>