<svg xmlns="http://www.w3.org/2000/svg" width="58" height="64" fill="none" viewBox="0 0 58 64"><path fill="#81C995" d="M45.7768 25.0217C49.5461 22.7417 54.4555 23.9384 56.7409 27.6944C59.0289 31.4504 57.828 36.3425 54.0587 38.6198C53.9582 38.6804 53.8577 38.7384 53.7572 38.7938L12.1728 62.6557C8.40348 64.9357 3.49409 63.739 1.20604 59.983C-1.08201 56.227 0.118883 51.3349 3.88822 49.0549C3.98873 48.9943 4.08925 48.9363 4.18976 48.881L45.7768 25.0217Z"/><path fill="#34A853" d="M15.8974 8.00492C15.9159 3.62158 12.3634 0.0500613 7.96458 0.0316106C7.39852 0.0289748 6.8351 0.0869625 6.27962 0.202938C2.55262 1.11493 -0.0528441 4.46767 5.8693e-05 8.29486V55.6893L15.8815 55.9766L15.8974 8.00492Z"/><path fill="#5BB974" d="M45.9563 38.8228C49.7997 40.8076 54.5292 39.5371 56.8516 35.8944C59.0841 32.1516 57.8488 27.3122 54.0928 25.0876C54.0637 25.0718 54.0372 25.056 54.0081 25.0375L12.1462 1.13339C8.41921 -1.10968 3.57067 0.0817035 1.31702 3.79556C1.26147 3.88781 1.20592 3.9827 1.15302 4.07759C-1.05831 7.84943 0.216641 12.6967 4.00183 14.9028C4.02828 14.9187 4.05473 14.9318 4.08118 14.9477L45.9563 38.8228Z"/><path fill="#81C995" d="M53.7335 38.8781L15.8842 59.9461V41.8487L45.9171 25.1614C49.898 22.9631 54.9159 24.397 57.1219 28.3665C57.3282 28.7355 57.5028 29.1204 57.6483 29.5157C58.7751 33.1663 57.1298 37.1016 53.7335 38.8781Z"/><path fill="#1E8E3E" d="M7.95658 63.9974C12.3421 63.9974 15.8973 60.4547 15.8973 56.0846C15.8973 51.7145 12.3421 48.1719 7.95658 48.1719C3.57105 48.1719 0.0158691 51.7145 0.0158691 56.0846C0.0158691 60.4547 3.57105 63.9974 7.95658 63.9974Z"/></svg>