<svg xmlns="http://www.w3.org/2000/svg" width="64" height="64" fill="none" viewBox="0 0 64 64"><path fill="#485A96" fill-rule="evenodd" d="M63.9996 60.4678C63.9996 62.4183 62.4182 64 60.4677 64V63.9998H44.159H3.53241C1.58121 63.9998 0.000244141 62.4183 0.000244141 60.4676V3.53218C0.000244141 1.58121 1.58121 0 3.53241 0H60.4677C62.418 0 63.9996 1.58097 63.9996 3.53218V60.4678ZM44.159 39.2158V63.9997H34.1842V39.2158H25.8439V29.5568H34.1842V22.4338C34.1842 14.1673 39.2329 9.66614 46.6073 9.66614C50.1392 9.66614 53.1755 9.92919 54.0601 10.0467V18.6855L48.9455 18.6879C44.9352 18.6879 44.1587 20.5936 44.1587 23.3901V29.5568H53.7234L52.4779 39.2158H44.159Z" clip-rule="evenodd"/></svg>