<svg xmlns="http://www.w3.org/2000/svg" width="64" height="64" fill="none" viewBox="0 0 64 64"><path fill="#095CA9" fill-rule="evenodd" d="M32 64C49.6731 64 64 49.6731 64 32C64 14.3269 49.6731 0 32 0C14.3269 0 0 14.3269 0 32C0 49.6731 14.3269 64 32 64ZM24 21C24 22.6569 22.6569 24 21 24C19.3431 24 18 22.6569 18 21C18 19.3431 19.3431 18 21 18C22.6569 18 24 19.3431 24 21ZM21 26C19.3431 26 18 27.3431 18 29V43C18 44.6569 19.3431 46 21 46C22.6569 46 24 44.6569 24 43V29C24 27.3431 22.6569 26 21 26ZM47 36C47 41.5228 42.5228 46 37 46C31.4772 46 27 41.5228 27 36C27 30.4772 31.4772 26 37 26C42.5228 26 47 30.4772 47 36ZM41 36C41 38.2091 39.2091 40 37 40C34.7909 40 33 38.2091 33 36C33 33.7909 34.7909 32 37 32C39.2091 32 41 33.7909 41 36Z" clip-rule="evenodd"/></svg>