<svg xmlns="http://www.w3.org/2000/svg" width="64" height="44" fill="none" viewBox="0 0 64 44"><path fill="red" d="M33.4179 43.9424L20.2876 43.7037C16.0363 43.6205 11.7744 43.7865 7.60642 42.9249C1.26601 41.6376 0.816832 35.3255 0.346816 30.0308C-0.300819 22.5872 -0.0501001 15.0085 1.17207 7.62701C1.86203 3.48522 4.57728 1.01379 8.77633 0.744848C22.9512 -0.231171 37.2203 -0.115502 51.3638 0.339845C52.8575 0.381588 54.3615 0.60974 55.8344 0.869438C63.1049 2.13606 63.2822 9.28907 63.7535 15.3106C64.2235 21.3942 64.0251 27.509 63.1267 33.5512C62.406 38.554 61.027 42.7493 55.2076 43.1543C47.9163 43.6839 40.7923 44.1103 33.4804 43.9745C33.4807 43.9424 33.4387 43.9424 33.4179 43.9424ZM25.6985 31.2767C31.1932 28.1412 36.583 25.058 42.0462 21.9435C36.5413 18.808 31.1617 15.7248 25.6985 12.6103V31.2767Z"/></svg>